<?xml version="1.0" encoding="UTF-8"?>
<svg id="Layer_2" data-name="Layer 2" xmlns="http://www.w3.org/2000/svg" viewBox="0 0 291.39 426.87">
  <defs>
    <style>
      .cls-1 {
        fill: #1f6996;
      }
    </style>
  </defs>
  <g id="suit">
    <g>
      <g>
        <g>
          <path class="cls-1" d="M251.99,402.53c8.12,8.12,18.65,12.13,28.66,11.88.25-10.02-3.76-20.54-11.88-28.66s-18.65-12.13-28.66-11.88c-.25,10.02,3.76,20.54,11.88,28.66Z"/>
          <path class="cls-1" d="M267.6,386.45c1.19,13.26,6.06,23.15,12.78,27.99,5.29-11.09,8.05-24.95,6.86-38.21-1.18-13.26-6.06-23.15-12.78-27.99-5.3,11.09-8.05,24.95-6.86,38.21Z"/>
          <path class="cls-1" d="M253.28,400.78c13.26,1.19,23.15,6.06,28,12.78-11.09,5.3-24.95,8.05-38.21,6.86-13.26-1.19-23.15-6.06-28-12.78,11.09-5.29,24.95-8.05,38.21-6.86Z"/>
        </g>
        <g>
          <path class="cls-1" d="M42.54,402.53c-8.12,8.12-18.65,12.13-28.66,11.88-.25-10.02,3.76-20.54,11.88-28.66,8.12-8.12,18.65-12.13,28.66-11.88.25,10.02-3.76,20.54-11.88,28.66Z"/>
          <path class="cls-1" d="M26.93,386.45c-1.19,13.26-6.06,23.15-12.78,27.99-5.3-11.09-8.05-24.95-6.86-38.21,1.19-13.26,6.06-23.15,12.78-27.99,5.3,11.09,8.05,24.95,6.86,38.21Z"/>
          <path class="cls-1" d="M41.25,400.78c-13.26,1.19-23.15,6.06-28,12.78,11.09,5.3,24.95,8.05,38.21,6.86,13.26-1.19,23.15-6.06,27.99-12.78-11.09-5.29-24.95-8.05-38.21-6.86Z"/>
        </g>
      </g>
      <g>
        <g>
          <path class="cls-1" d="M251.99,23.66c8.12-8.12,18.65-12.13,28.66-11.88.25,10.01-3.76,20.54-11.88,28.66-8.12,8.12-18.65,12.13-28.66,11.88-.25-10.01,3.76-20.54,11.88-28.66Z"/>
          <path class="cls-1" d="M267.6,39.73c1.19-13.26,6.06-23.15,12.78-28,5.29,11.09,8.05,24.95,6.86,38.21-1.18,13.26-6.06,23.15-12.78,28-5.3-11.09-8.05-24.95-6.86-38.21Z"/>
          <path class="cls-1" d="M253.28,25.41c13.26-1.19,23.15-6.06,28-12.78-11.09-5.3-24.95-8.05-38.21-6.86-13.26,1.19-23.15,6.06-28,12.78,11.09,5.3,24.95,8.05,38.21,6.86Z"/>
        </g>
        <g>
          <path class="cls-1" d="M42.54,23.66c-8.12-8.12-18.65-12.13-28.66-11.88-.25,10.01,3.76,20.54,11.88,28.66,8.12,8.12,18.65,12.13,28.66,11.88.25-10.01-3.76-20.54-11.88-28.66Z"/>
          <path class="cls-1" d="M26.93,39.73c-1.19-13.26-6.06-23.15-12.78-28-5.3,11.09-8.05,24.95-6.86,38.21,1.19,13.26,6.06,23.15,12.78,28,5.3-11.09,8.05-24.95,6.86-38.21Z"/>
          <path class="cls-1" d="M41.25,25.41c-13.26-1.19-23.15-6.06-28-12.78,11.09-5.3,24.95-8.05,38.21-6.86,13.26,1.19,23.15,6.06,27.99,12.78-11.09,5.3-24.95,8.05-38.21,6.86Z"/>
        </g>
      </g>
      <path class="cls-1" d="M260.23,426.87H31.16c-17.18,0-31.16-14.52-31.16-32.36V32.36C0,14.51,13.98,0,31.16,0h229.07c17.18,0,31.16,14.51,31.16,32.36v362.16c0,17.84-13.98,32.36-31.16,32.36ZM31.16,9.38c-12.01,0-21.79,10.31-21.79,22.98v362.16c0,12.67,9.77,22.98,21.79,22.98h229.07c12.01,0,21.78-10.31,21.78-22.98V32.36c0-12.67-9.77-22.98-21.78-22.98H31.16Z"/>
    </g>
  </g>
</svg>